<svg width="146" height="56" viewBox="0 0 146 56" fill="none" xmlns="http://www.w3.org/2000/svg">
<path d="M37.7307 8.06323V8.92949H36.5527V12.502H35.4697V8.92949H34.2917V8.06323H37.7307Z" fill="black"/>
<path d="M43.9027 8.06323V12.502H42.8197V10.6747H41.135V12.502H40.052V8.06323H41.135V9.80208H42.8197V8.06323H43.9027Z" fill="black"/>
<path d="M47.5453 8.92949V9.82737H48.9956V10.662H47.5453V11.6358H49.1856V12.502H46.4623V8.06323H49.1856V8.92949H47.5453Z" fill="black"/>
<path d="M54.6027 10.2763C54.6027 9.83791 54.6977 9.44798 54.8877 9.10654C55.0777 8.76088 55.3416 8.4932 55.6794 8.30351C56.0214 8.1096 56.4077 8.01265 56.8384 8.01265C57.3662 8.01265 57.8179 8.15175 58.1937 8.42997C58.5695 8.70818 58.8207 9.08757 58.9474 9.56812H57.7567C57.668 9.38265 57.5414 9.24143 57.3767 9.14448C57.2163 9.04752 57.0326 8.99905 56.8257 8.99905C56.4922 8.99905 56.2219 9.11497 56.015 9.34682C55.8082 9.57866 55.7047 9.88849 55.7047 10.2763C55.7047 10.6641 55.8082 10.974 56.015 11.2058C56.2219 11.4376 56.4922 11.5536 56.8257 11.5536C57.0326 11.5536 57.2163 11.5051 57.3767 11.4081C57.5414 11.3112 57.668 11.17 57.7567 10.9845H58.9474C58.8207 11.465 58.5695 11.8444 58.1937 12.1226C57.8179 12.3966 57.3662 12.5336 56.8384 12.5336C56.4077 12.5336 56.0214 12.4388 55.6794 12.2491C55.3416 12.0552 55.0777 11.7875 54.8877 11.4461C54.6977 11.1046 54.6027 10.7147 54.6027 10.2763Z" fill="black"/>
<path d="M63.491 12.5463C63.073 12.5463 62.6888 12.4493 62.3384 12.2554C61.9922 12.0615 61.7156 11.7917 61.5087 11.4461C61.306 11.0962 61.2047 10.7042 61.2047 10.27C61.2047 9.8358 61.306 9.44588 61.5087 9.10021C61.7156 8.75455 61.9922 8.48477 62.3384 8.29086C62.6888 8.09695 63.073 8 63.491 8C63.909 8 64.2911 8.09695 64.6374 8.29086C64.9878 8.48477 65.2623 8.75455 65.4607 9.10021C65.6634 9.44588 65.7647 9.8358 65.7647 10.27C65.7647 10.7042 65.6634 11.0962 65.4607 11.4461C65.258 11.7917 64.9836 12.0615 64.6374 12.2554C64.2911 12.4493 63.909 12.5463 63.491 12.5463ZM63.491 11.5599C63.8457 11.5599 64.1286 11.4419 64.3397 11.2058C64.555 10.9697 64.6627 10.6578 64.6627 10.27C64.6627 9.87795 64.555 9.56602 64.3397 9.33417C64.1286 9.09811 63.8457 8.98008 63.491 8.98008C63.1321 8.98008 62.845 9.096 62.6297 9.32785C62.4186 9.55969 62.313 9.87374 62.313 10.27C62.313 10.662 62.4186 10.9761 62.6297 11.2121C62.845 11.444 63.1321 11.5599 63.491 11.5599Z" fill="black"/>
<path d="M73.18 8.06323V12.502H72.097V9.84001L71.1027 12.502H70.2287L69.228 9.83369V12.502H68.145V8.06323H69.4243L70.672 11.1362L71.907 8.06323H73.18Z" fill="black"/>
<path d="M80.7716 8.06323V12.502H79.6886V9.84001L78.6942 12.502H77.8202L76.8196 9.83369V12.502H75.7366V8.06323H77.0159L78.2636 11.1362L79.4986 8.06323H80.7716Z" fill="black"/>
<path d="M86.0958 11.718H84.4365L84.1705 12.502H83.0368L84.6455 8.06323H85.8995L87.5081 12.502H86.3618L86.0958 11.718ZM85.8171 10.8833L85.2661 9.25829L84.7215 10.8833H85.8171Z" fill="black"/>
<path d="M93.7529 12.502H92.6698L90.8585 9.76414V12.502H89.7755V8.06323H90.8585L92.6698 10.8138V8.06323H93.7529V12.502Z" fill="black"/>
<path d="M97.9813 8.06323C98.45 8.06323 98.8596 8.15597 99.21 8.34145C99.5604 8.52692 99.8307 8.78828 100.021 9.12551C100.215 9.45852 100.312 9.84423 100.312 10.2826C100.312 10.7168 100.215 11.1025 100.021 11.4398C99.8307 11.777 99.5583 12.0383 99.2037 12.2238C98.8532 12.4093 98.4458 12.502 97.9813 12.502H96.3157V8.06323H97.9813ZM97.9117 11.5662C98.3212 11.5662 98.64 11.4545 98.868 11.2311C99.096 11.0077 99.21 10.6915 99.21 10.2826C99.21 9.87374 99.096 9.55548 98.868 9.32785C98.64 9.10021 98.3212 8.9864 97.9117 8.9864H97.3987V11.5662H97.9117Z" fill="black"/>
<path d="M103.778 8.92949V9.82737H105.228V10.662H103.778V11.6358H105.418V12.502H102.695V8.06323H105.418V8.92949H103.778Z" fill="black"/>
<path d="M110.167 12.502L109.242 10.8264H108.982V12.502H107.899V8.06323H109.717C110.067 8.06323 110.365 8.12435 110.61 8.2466C110.859 8.36885 111.045 8.53746 111.167 8.75245C111.29 8.96321 111.351 9.19928 111.351 9.46063C111.351 9.75571 111.266 10.0192 111.098 10.251C110.933 10.4829 110.688 10.6473 110.363 10.7442L111.389 12.502H110.167ZM108.982 10.0613H109.654C109.852 10.0613 110 10.0128 110.097 9.91589C110.198 9.81894 110.249 9.68194 110.249 9.50489C110.249 9.33628 110.198 9.20349 110.097 9.10654C110 9.00958 109.852 8.96111 109.654 8.96111H108.982V10.0613Z" fill="black"/>
<path fill-rule="evenodd" clip-rule="evenodd" d="M68.2982 19.1579C68.3468 19.1579 68.3955 19.1579 68.4444 19.1579L77.4796 19.1579C79.4496 19.1578 81.147 19.1577 82.5062 19.3402C83.9629 19.5357 85.3592 19.9766 86.4918 21.1074C87.6244 22.2381 88.0661 23.6322 88.2619 25.0865C88.4446 26.4436 88.4446 28.1382 88.4444 30.105V30.3971C88.4446 32.3639 88.4446 34.0585 88.2619 35.4155C88.0661 36.8699 87.6244 38.2639 86.4918 39.3947C85.3592 40.5254 83.9629 40.9664 82.5062 41.1619C81.147 41.3444 79.4496 41.3443 77.4796 41.3441H68.2981C66.3282 41.3443 64.6308 41.3444 63.2716 41.1619C61.8149 40.9664 60.4185 40.5254 59.286 39.3947C58.1534 38.2639 57.7117 36.8699 57.5159 35.4155C57.3331 34.0585 57.3332 32.3639 57.3333 30.3971C57.3333 30.3486 57.3333 30.2999 57.3333 30.251C57.3333 30.2022 57.3333 30.1535 57.3333 30.105C57.3332 28.1382 57.3331 26.4436 57.5159 25.0865C57.7117 23.6322 58.1534 22.2381 59.286 21.1074C60.4185 19.9766 61.8149 19.5357 63.2716 19.3402C64.6308 19.1577 66.3282 19.1578 68.2982 19.1579ZM63.8638 23.7378C62.8999 23.8672 62.5978 24.0761 62.4287 24.245C62.2595 24.4139 62.0503 24.7155 61.9207 25.6778C61.7825 26.7039 61.7778 28.0966 61.7778 30.251C61.7778 32.4055 61.7825 33.7981 61.9207 34.8243C62.0503 35.7866 62.2595 36.0882 62.4287 36.2571C62.5978 36.426 62.8999 36.6348 63.8638 36.7642C64.8916 36.9022 66.2865 36.9069 68.4444 36.9069H77.3333C79.4913 36.9069 80.8862 36.9022 81.914 36.7642C82.8779 36.6348 83.18 36.426 83.3491 36.2571C83.5183 36.0882 83.7275 35.7866 83.8571 34.8243C83.9953 33.7981 84 32.4055 84 30.251C84 28.0966 83.9953 26.7039 83.8571 25.6778C83.7275 24.7155 83.5183 24.4139 83.3491 24.245C83.18 24.0761 82.8779 23.8672 81.914 23.7378C80.8862 23.5999 79.4913 23.5952 77.3333 23.5952H68.4444C66.2865 23.5952 64.8916 23.5999 63.8638 23.7378Z" fill="black"/>
<path d="M24 30.0846C23.9999 28.1265 24.0004 26.4389 24.1825 25.0865C24.3784 23.6322 24.82 22.2381 25.9526 21.1074C27.0852 19.9766 28.4815 19.5357 29.9383 19.3402C31.2975 19.1577 32.9949 19.1578 34.9648 19.1579H44.1463C46.1163 19.1578 47.8136 19.1577 49.1729 19.3402C50.6296 19.5357 52.0259 19.9766 53.1585 21.1074C54.2911 22.2381 54.7327 23.6322 54.9286 25.0865C55.0706 26.1414 55.1022 27.4001 55.1092 28.8322L55.1111 28.8366V29.5577L55.111 29.5581C55.1111 29.7379 55.1111 29.9202 55.1111 30.105V30.3971C55.1112 32.3639 55.1113 34.0585 54.9286 35.4155C54.7327 36.8699 54.2911 38.2639 53.1585 39.3947C52.0259 40.5254 50.6296 40.9664 49.1729 41.1619C47.8137 41.3444 46.1163 41.3443 44.1464 41.3441L32.8889 41.3441C32.8889 38.8935 34.8787 36.9069 37.3333 36.9069H44.1557C46.2254 36.9066 47.5778 36.8988 48.5807 36.7642C49.5445 36.6348 49.8466 36.426 50.0158 36.2571C50.185 36.0882 50.3942 35.7866 50.5238 34.8243C50.6586 33.823 50.6664 32.4728 50.6667 30.4065V30.0956C50.6664 28.0292 50.6586 26.679 50.5238 25.6778C50.3942 24.7155 50.185 24.4139 50.0158 24.245C49.8466 24.0761 49.5445 23.8672 48.5807 23.7378C47.5529 23.5999 46.158 23.5952 44 23.5952H35.1111C32.9532 23.5952 31.5583 23.5999 30.5305 23.7378C29.5666 23.8672 29.2645 24.0761 29.0953 24.245C28.9262 24.4139 28.7169 24.7155 28.5874 25.6778C28.4627 26.6036 28.4467 27.8279 28.4447 29.6409H28.4444V43.5628C28.4444 45.6545 28.4444 46.7004 27.7936 47.3502C27.1427 48 26.0951 48 24 48L24 30.0846Z" fill="black"/>
<path d="M121.778 30.4174C121.778 32.3755 121.777 34.0631 121.595 35.4155C121.399 36.8698 120.958 38.2639 119.825 39.3947C118.693 40.5254 117.296 40.9664 115.84 41.1619C114.48 41.3443 112.783 41.3442 110.813 41.3441L101.631 41.3441C99.6615 41.3442 97.9641 41.3443 96.6049 41.1619C95.1482 40.9663 93.7519 40.5254 92.6193 39.3947C91.4867 38.2639 91.0451 36.8698 90.8492 35.4155C90.7072 34.3607 90.6756 33.1019 90.6686 31.6699L90.6667 31.6654V30.9443L90.6668 30.944C90.6666 30.7641 90.6667 30.5818 90.6667 30.3971V30.1049C90.6666 28.1382 90.6665 26.4436 90.8492 25.0865C91.0451 23.6322 91.4867 22.2381 92.6193 21.1073C93.7519 19.9766 95.1482 19.5357 96.6049 19.3401C97.9641 19.1577 99.6615 19.1578 101.631 19.1579L112.889 19.1579C112.889 21.6085 110.899 23.5951 108.444 23.5951H101.622C99.5524 23.5954 98.2 23.6032 97.1971 23.7378C96.2333 23.8672 95.9312 24.0761 95.762 24.245C95.5928 24.4138 95.3836 24.7155 95.254 25.6778C95.1192 26.679 95.1114 28.0292 95.1111 30.0955V30.4065C95.1114 32.4728 95.1192 33.823 95.254 34.8242C95.3836 35.7865 95.5928 36.0882 95.762 36.2571C95.9312 36.4259 96.2333 36.6348 97.1971 36.7642C98.2249 36.9022 99.6198 36.9069 101.778 36.9069H110.667C112.825 36.9069 114.22 36.9022 115.247 36.7642C116.211 36.6348 116.513 36.4259 116.682 36.2571C116.852 36.0882 117.061 35.7865 117.19 34.8242C117.315 33.8984 117.331 32.6741 117.333 30.8611H117.333V16.9393C117.333 14.4887 119.323 12.502 121.778 12.502V30.4174Z" fill="black"/>
</svg>
