<svg width="98" height="41" viewBox="0 0 98 41" fill="none" xmlns="http://www.w3.org/2000/svg">
<path d="M13.7307 0.563231V1.42949H12.5527V5.00203H11.4697V1.42949H10.2917V0.563231H13.7307Z" fill="white"/>
<path d="M19.9027 0.563231V5.00203H18.8197V3.17466H17.135V5.00203H16.052V0.563231H17.135V2.30208H18.8197V0.563231H19.9027Z" fill="white"/>
<path d="M23.5453 1.42949V2.32737H24.9956V3.16201H23.5453V4.13577H25.1856V5.00203H22.4623V0.563231H25.1856V1.42949H23.5453Z" fill="white"/>
<path d="M30.6027 2.77631C30.6027 2.33791 30.6977 1.94798 30.8877 1.60654C31.0777 1.26088 31.3416 0.9932 31.6794 0.803507C32.0214 0.6096 32.4077 0.512646 32.8384 0.512646C33.3662 0.512646 33.8179 0.651754 34.1937 0.929969C34.5695 1.20818 34.8207 1.58757 34.9474 2.06812H33.7567C33.668 1.88265 33.5414 1.74143 33.3767 1.64448C33.2163 1.54752 33.0326 1.49905 32.8257 1.49905C32.4922 1.49905 32.2219 1.61497 32.015 1.84682C31.8082 2.07866 31.7047 2.38849 31.7047 2.77631C31.7047 3.16412 31.8082 3.47395 32.015 3.7058C32.2219 3.93765 32.4922 4.05357 32.8257 4.05357C33.0326 4.05357 33.2163 4.00509 33.3767 3.90814C33.5414 3.81118 33.668 3.66997 33.7567 3.48449H34.9474C34.8207 3.96505 34.5695 4.34443 34.1937 4.62265C33.8179 4.89665 33.3662 5.03365 32.8384 5.03365C32.4077 5.03365 32.0214 4.9388 31.6794 4.74911C31.3416 4.5552 31.0777 4.28752 30.8877 3.94608C30.6977 3.60463 30.6027 3.21471 30.6027 2.77631Z" fill="white"/>
<path d="M39.491 5.04629C39.073 5.04629 38.6888 4.94934 38.3384 4.75543C37.9921 4.56152 37.7156 4.29174 37.5087 3.94608C37.306 3.5962 37.2047 3.20417 37.2047 2.76998C37.2047 2.3358 37.306 1.94588 37.5087 1.60021C37.7156 1.25455 37.9921 0.984769 38.3384 0.790861C38.6888 0.596954 39.073 0.5 39.491 0.5C39.909 0.5 40.2911 0.596954 40.6374 0.790861C40.9878 0.984769 41.2623 1.25455 41.4607 1.60021C41.6634 1.94588 41.7647 2.3358 41.7647 2.76998C41.7647 3.20417 41.6634 3.5962 41.4607 3.94608C41.258 4.29174 40.9836 4.56152 40.6374 4.75543C40.2911 4.94934 39.909 5.04629 39.491 5.04629ZM39.491 4.05989C39.8457 4.05989 40.1286 3.94186 40.3397 3.7058C40.555 3.46974 40.6627 3.1578 40.6627 2.76998C40.6627 2.37795 40.555 2.06602 40.3397 1.83417C40.1286 1.59811 39.8457 1.48008 39.491 1.48008C39.1321 1.48008 38.845 1.596 38.6297 1.82785C38.4186 2.05969 38.313 2.37374 38.313 2.76998C38.313 3.16201 38.4186 3.47606 38.6297 3.71212C38.845 3.94397 39.1321 4.05989 39.491 4.05989Z" fill="white"/>
<path d="M49.18 0.563231V5.00203H48.097V2.34001L47.1027 5.00203H46.2287L45.228 2.33369V5.00203H44.145V0.563231H45.4243L46.672 3.63625L47.907 0.563231H49.18Z" fill="white"/>
<path d="M56.7716 0.563231V5.00203H55.6886V2.34001L54.6942 5.00203H53.8202L52.8196 2.33369V5.00203H51.7366V0.563231H53.0159L54.2636 3.63625L55.4986 0.563231H56.7716Z" fill="white"/>
<path d="M62.0958 4.21797H60.4365L60.1705 5.00203H59.0368L60.6455 0.563231H61.8995L63.5081 5.00203H62.3618L62.0958 4.21797ZM61.8171 3.38332L61.2661 1.75829L60.7215 3.38332H61.8171Z" fill="white"/>
<path d="M69.7529 5.00203H68.6699L66.8585 2.26414V5.00203H65.7755V0.563231H66.8585L68.6699 3.31377V0.563231H69.7529V5.00203Z" fill="white"/>
<path d="M73.9813 0.563231C74.45 0.563231 74.8596 0.655969 75.21 0.841446C75.5604 1.02692 75.8307 1.28828 76.0207 1.62551C76.2149 1.95852 76.312 2.34423 76.312 2.78263C76.312 3.21681 76.2149 3.60252 76.0207 3.93975C75.8307 4.27698 75.5583 4.53834 75.2037 4.72381C74.8532 4.90929 74.4458 5.00203 73.9813 5.00203H72.3157V0.563231H73.9813ZM73.9117 4.06621C74.3212 4.06621 74.64 3.95451 74.868 3.73109C75.096 3.50768 75.21 3.19152 75.21 2.78263C75.21 2.37374 75.096 2.05548 74.868 1.82785C74.64 1.60021 74.3212 1.4864 73.9117 1.4864H73.3987V4.06621H73.9117Z" fill="white"/>
<path d="M79.778 1.42949V2.32737H81.2283V3.16201H79.778V4.13577H81.4183V5.00203H78.695V0.563231H81.4183V1.42949H79.778Z" fill="white"/>
<path d="M86.1665 5.00203L85.2419 3.32641H84.9822V5.00203H83.8992V0.563231H85.7169C86.0673 0.563231 86.365 0.624354 86.6099 0.7466C86.859 0.868846 87.0448 1.03746 87.1672 1.25245C87.2896 1.46321 87.3509 1.69928 87.3509 1.96063C87.3509 2.25571 87.2664 2.51917 87.0975 2.75101C86.9329 2.98286 86.688 3.14726 86.3629 3.24421L87.3889 5.00203H86.1665ZM84.9822 2.56132H85.6535C85.852 2.56132 85.9998 2.51285 86.0969 2.41589C86.1982 2.31894 86.2489 2.18194 86.2489 2.00489C86.2489 1.83628 86.1982 1.70349 86.0969 1.60654C85.9998 1.50958 85.852 1.46111 85.6535 1.46111H84.9822V2.56132Z" fill="white"/>
<path fill-rule="evenodd" clip-rule="evenodd" d="M44.2982 11.6579C44.3468 11.6579 44.3955 11.6579 44.4444 11.6579L53.4796 11.6579C55.4496 11.6578 57.147 11.6577 58.5062 11.8402C59.9629 12.0357 61.3592 12.4766 62.4918 13.6074C63.6244 14.7381 64.066 16.1322 64.2619 17.5865C64.4446 18.9436 64.4445 20.6382 64.4444 22.605V22.8971C64.4445 24.8639 64.4446 26.5585 64.2619 27.9155C64.066 29.3699 63.6244 30.7639 62.4918 31.8947C61.3592 33.0254 59.9629 33.4664 58.5062 33.6619C57.147 33.8444 55.4496 33.8443 53.4796 33.8441H44.2981C42.3282 33.8443 40.6308 33.8444 39.2716 33.6619C37.8149 33.4664 36.4185 33.0254 35.286 31.8947C34.1534 30.7639 33.7117 29.3699 33.5159 27.9155C33.3331 26.5585 33.3332 24.8639 33.3333 22.8971C33.3333 22.8486 33.3333 22.7999 33.3333 22.751C33.3333 22.7022 33.3333 22.6535 33.3333 22.605C33.3332 20.6382 33.3331 18.9436 33.5159 17.5865C33.7117 16.1322 34.1534 14.7381 35.286 13.6074C36.4185 12.4766 37.8149 12.0357 39.2716 11.8402C40.6308 11.6577 42.3282 11.6578 44.2982 11.6579ZM39.8638 16.2378C38.8999 16.3672 38.5978 16.5761 38.4287 16.745C38.2595 16.9139 38.0503 17.2155 37.9207 18.1778C37.7825 19.2039 37.7778 20.5966 37.7778 22.751C37.7778 24.9055 37.7825 26.2981 37.9207 27.3243C38.0503 28.2866 38.2595 28.5882 38.4287 28.7571C38.5978 28.926 38.8999 29.1348 39.8638 29.2642C40.8916 29.4022 42.2865 29.4069 44.4444 29.4069H53.3333C55.4913 29.4069 56.8862 29.4022 57.914 29.2642C58.8779 29.1348 59.18 28.926 59.3491 28.7571C59.5183 28.5882 59.7275 28.2866 59.8571 27.3243C59.9953 26.2981 60 24.9055 60 22.751C60 20.5966 59.9953 19.2039 59.8571 18.1778C59.7275 17.2155 59.5183 16.9139 59.3491 16.745C59.18 16.5761 58.8779 16.3672 57.914 16.2378C56.8862 16.0999 55.4913 16.0952 53.3333 16.0952H44.4444C42.2865 16.0952 40.8916 16.0999 39.8638 16.2378Z" fill="white"/>
<path d="M4.26376e-06 22.5846C-0.000103492 20.6265 0.000430756 18.9389 0.182545 17.5865C0.378394 16.1322 0.820049 14.7381 1.95263 13.6074C3.08521 12.4766 4.48155 12.0357 5.93825 11.8402C7.29749 11.6577 8.99486 11.6578 10.9648 11.6579H20.1463C22.1163 11.6578 23.8136 11.6577 25.1729 11.8402C26.6296 12.0357 28.0259 12.4766 29.1585 13.6074C30.2911 14.7381 30.7327 16.1322 30.9286 17.5865C31.0706 18.6414 31.1022 19.9001 31.1092 21.3322L31.1111 21.3366V22.0577L31.111 22.0581C31.1111 22.2379 31.1111 22.4202 31.1111 22.605V22.8971C31.1112 24.8639 31.1113 26.5585 30.9286 27.9155C30.7327 29.3699 30.2911 30.7639 29.1585 31.8947C28.0259 33.0254 26.6296 33.4664 25.1729 33.6619C23.8137 33.8443 22.1163 33.8443 20.1464 33.8441L8.88889 33.8441C8.88889 31.3935 10.8787 29.4069 13.3333 29.4069H20.1557C22.2254 29.4066 23.5778 29.3988 24.5807 29.2642C25.5445 29.1348 25.8466 28.926 26.0158 28.7571C26.185 28.5882 26.3942 28.2866 26.5238 27.3243C26.6586 26.323 26.6664 24.9728 26.6667 22.9065V22.5956C26.6664 20.5292 26.6586 19.179 26.5238 18.1778C26.3942 17.2155 26.185 16.9139 26.0158 16.745C25.8466 16.5761 25.5445 16.3672 24.5807 16.2378C23.5529 16.0999 22.158 16.0952 20 16.0952H11.1111C8.95317 16.0952 7.55825 16.0999 6.53046 16.2378C5.5666 16.3672 5.26449 16.5761 5.09533 16.745C4.92616 16.9139 4.71694 17.2155 4.58736 18.1778C4.46268 19.1036 4.44665 20.3279 4.44471 22.1409H4.44444V36.0628C4.44444 38.1545 4.44444 39.2004 3.79357 39.8502C3.1427 40.5 2.09513 40.5 0 40.5L4.26376e-06 22.5846Z" fill="white"/>
<path d="M97.7778 22.9174C97.7779 24.8755 97.7774 26.5631 97.5952 27.9155C97.3994 29.3698 96.9577 30.7639 95.8251 31.8947C94.6926 33.0254 93.2962 33.4664 91.8395 33.6619C90.4803 33.8443 88.7829 33.8442 86.813 33.8441L77.6315 33.8441C75.6615 33.8442 73.9641 33.8443 72.6049 33.6619C71.1482 33.4664 69.7519 33.0254 68.6193 31.8947C67.4867 30.7639 67.0451 29.3698 66.8492 27.9155C66.7072 26.8607 66.6756 25.6019 66.6686 24.1699L66.6667 24.1654V23.4443L66.6668 23.444C66.6666 23.2641 66.6666 23.0818 66.6667 22.8971V22.6049C66.6665 20.6382 66.6665 18.9436 66.8492 17.5865C67.0451 16.1322 67.4867 14.7381 68.6193 13.6073C69.7519 12.4766 71.1482 12.0357 72.6049 11.8401C73.9641 11.6577 75.6615 11.6578 77.6314 11.6579L88.8889 11.6579C88.8889 14.1085 86.899 16.0951 84.4445 16.0951H77.6221C75.5524 16.0954 74.2 16.1032 73.1971 16.2378C72.2333 16.3672 71.9312 16.5761 71.762 16.745C71.5928 16.9138 71.3836 17.2155 71.254 18.1778C71.1192 19.179 71.1114 20.5292 71.1111 22.5955V22.9065C71.1114 24.9728 71.1192 26.323 71.254 27.3242C71.3836 28.2865 71.5928 28.5882 71.762 28.7571C71.9312 28.9259 72.2333 29.1348 73.1971 29.2642C74.2249 29.4022 75.6198 29.4069 77.7778 29.4069H86.6667C88.8246 29.4069 90.2195 29.4022 91.2473 29.2642C92.2112 29.1348 92.5133 28.9259 92.6824 28.7571C92.8516 28.5882 93.0608 28.2865 93.1904 27.3242C93.3151 26.3984 93.3311 25.1741 93.3331 23.3611H93.3333V9.43928C93.3333 6.98866 95.3232 5.00203 97.7778 5.00203V22.9174Z" fill="white"/>
</svg>
