<svg width="24" height="25" viewBox="0 0 24 25" fill="none" xmlns="http://www.w3.org/2000/svg">
<path d="M11.9633 0.5C5.35629 0.5 0 5.85614 0 12.4631C0 19.0704 5.35629 24.4261 11.9633 24.4261C18.571 24.4261 23.9267 19.0704 23.9267 12.4631C23.9267 5.85657 18.571 0.500571 11.9631 0.500571L11.9633 0.5ZM17.4496 17.7543C17.2353 18.1057 16.7753 18.2171 16.4239 18.0014C13.615 16.2857 10.079 15.8971 5.91471 16.8486C5.51343 16.94 5.11343 16.6886 5.022 16.2871C4.93014 15.8857 5.18057 15.4857 5.58286 15.3943C10.14 14.3527 14.049 14.8014 17.2024 16.7286C17.5539 16.9443 17.6653 17.4029 17.4496 17.7543ZM18.9139 14.4964C18.6439 14.9357 18.0696 15.0743 17.631 14.8043C14.4153 12.8273 9.51343 12.2549 5.70986 13.4094C5.21657 13.5584 4.69557 13.2804 4.54586 12.788C4.39729 12.2947 4.67543 11.7747 5.16786 11.6247C9.51257 10.3064 14.9139 10.945 18.6067 13.2143C19.0453 13.4843 19.1839 14.0584 18.9139 14.4964ZM19.0396 11.1044C15.1839 8.81429 8.82243 8.60371 5.14114 9.721C4.55 9.90029 3.92486 9.56657 3.74571 8.97543C3.56657 8.384 3.9 7.75929 4.49157 7.57957C8.71743 6.29672 15.7424 6.54457 20.1816 9.17986C20.7144 9.49543 20.8887 10.1821 20.573 10.7131C20.2587 11.2449 19.5701 11.4201 19.0401 11.1044H19.0396Z" fill="white"/>
</svg>
