<svg width="24" height="17" viewBox="0 0 24 17" fill="none" xmlns="http://www.w3.org/2000/svg">
<path fill-rule="evenodd" clip-rule="evenodd" d="M22.7465 1.33407C23.1189 1.70883 23.3863 2.17482 23.522 2.68541C24.0238 4.56996 24.0238 8.49996 24.0238 8.49996C24.0238 8.49996 24.0238 12.43 23.522 14.3145C23.3863 14.8251 23.1189 15.2911 22.7465 15.6658C22.3741 16.0406 21.9099 16.311 21.4002 16.45C19.5238 16.9545 12.0238 16.9545 12.0238 16.9545C12.0238 16.9545 4.5238 16.9545 2.64744 16.45C2.13773 16.311 1.67346 16.0406 1.30109 15.6658C0.92872 15.2911 0.661309 14.8251 0.525622 14.3145C0.0238037 12.43 0.0238037 8.49996 0.0238037 8.49996C0.0238037 8.49996 0.0238037 4.56996 0.525622 2.68541C0.661309 2.17482 0.92872 1.70883 1.30109 1.33407C1.67346 0.959301 2.13773 0.688911 2.64744 0.549956C4.5238 0.0454102 12.0238 0.0454102 12.0238 0.0454102C12.0238 0.0454102 19.5238 0.0454102 21.4002 0.549956C21.9099 0.688911 22.3741 0.959301 22.7465 1.33407ZM15.842 8.50003L9.56927 4.9314V12.0687L15.842 8.50003Z" fill="white"/>
</svg>
